<svg xmlns="http://www.w3.org/2000/svg" viewBox="0 0 1240 666" width="1240" height="666" shape-rendering="geometricPrecision" text-rendering="geometricPrecision" image-rendering="optimizeQuality" fill-rule="evenodd" clip-rule="evenodd"><defs><style>.fil0{fill:#fff}</style></defs><g id="Слой_x0020_1"><path class="fil0" d="M887 53h4l9 20h15l-11-22c2-1 3-2 5-4 2-3 4-6 3-10 0-10-7-17-17-17h-21v53h13V53zm0-21h7c3 0 5 2 5 5s-2 6-5 6h-7V32zM1076 62c-2 0-5-1-8-2-1 0-2-1-3-2l-9 8c2 2 5 4 7 5 4 1 8 2 12 2 14 0 22-6 22-17 0-9-5-14-15-15l-6-1c-3-1-5-2-5-4 0-3 3-5 8-5 2 0 4 0 5 1 2 0 3 1 3 2l9-8c-2-2-4-3-7-4-3-2-7-2-11-2-12 0-19 6-19 17 0 8 4 13 14 15l6 1c3 0 5 1 5 4s-3 5-8 5zM1118 52h13v21h13V20h-13v21h-13V20h-13v53h13zM961 57c0-5-2-8-7-11 4-3 6-7 6-11 0-9-7-15-17-15h-22v53h23c10 0 17-6 17-16zm-27-25h8c3 0 5 2 5 4 0 3-2 5-5 5h-8v-9zm9 29h-9v-9h9c2 0 5 2 5 4v1c0 2-2 4-4 4h-1zM1187 67c6-5 6-13 6-20v-5c0-8-2-13-6-16-3-4-9-6-14-6-6-1-11 2-15 6s-5 8-5 19v3c0 7 0 14 5 19 8 8 21 8 29 0zm-21-23c0-4 0-8 2-10 1-2 3-3 5-3s4 1 5 3 2 5 2 10v4c0 7-1 10-2 12-1 1-3 2-5 2s-4-1-5-2c-2-2-2-5-2-12v-4zM837 65h16l2 8h14l-19-53h-10l-19 53h13l3-8zm8-25l4 14h-9l5-14zM1026 53h5l9 20h15l-11-22c2-1 3-2 5-4 2-3 3-6 3-10 0-10-7-17-18-17h-20v53h12V53zm0-21h8c3 0 5 2 5 5s-2 6-5 6h-8V32zM1005 61h-23v-9h20V41h-20v-9h23V20h-36v53h36zM337 224h1V0l-48 12v205zM753 316c-59-15-29 41-53-8l21-4L4 194 0 311l468 63 1-67 155 16c-32 42-236 124-278 141L63 568c-8 2-11 3-17 10-20 21-27 65 13 84 5 2 10 4 16 4 82 1 324-130 391-167 38-20 238-149 266-145 45 7 75 25 125 25l12-22-16-21c-16-1-88 3-100-20zM92 630h-1c-9 0-17-8-17-17 0-10 8-17 17-17 10 0 17 8 17 17s-7 17-16 17zm570-270c-10 0-18-8-18-18 0-9 8-17 18-17 9 1 17 8 17 18 0 9-8 17-17 17zM937 88c-9-2-18-3-27-3-8 0-16 1-24 3-19 4-36 13-48 27-18 20-28 46-28 78s9 59 27 78c17 20 42 30 73 30s55-10 73-29c18-20 27-46 27-79 0-34-9-60-26-79-13-14-29-23-47-26zm9 155c-8 12-21 19-36 18-33 0-49-23-49-68 0-22 4-38 13-50s21-18 36-18c33 0 50 22 50 68 0 21-5 38-14 50zM1222 20h-21v53h13V54h8c11 0 18-7 18-17s-7-17-18-17zm0 23h-8V32h8c3 0 5 2 5 5s-2 6-5 6zM1116 233l-57-144h-50l65 161c9 24 14 41 15 54 0 3 0 6-1 8-2 4-4 7-7 10s-8 8-18 11c-5 1-11 2-17 2h-13l-19 22 19 21c70 3 91-41 91-41v-1l1-1 93-246h-50l-52 144zM600 264zM811 46zM737 285l13 2c6-4 13-10 17-13 19-15 29-35 29-61 0-39-18-64-53-76 24-13 36-31 36-54s-8-41-25-54-40-19-69-19c-16 0-43 1-81 3l-4 251 29 5 108 16zm7-78c0 17-6 30-16 38-10 7-26 11-49 11-6 0-14-1-24-1v-94c12 0 20-1 25-1 24 0 40 4 49 11 10 8 15 19 15 36zM684 52c30 0 45 11 45 33 0 25-17 37-50 37-8 0-17 0-24-1V53c11-1 20-1 29-1zM787 73h14c10 0 16-6 16-16 0-5-2-8-6-11 4-3 6-7 6-11 0-9-7-15-17-15h-22v24c1 1 2 3 2 4 4 8 6 16 7 25zm4-41h8c3 0 5 2 5 4 0 3-2 5-5 5h-8v-9zm0 20h8c3 0 5 1 5 4v1c0 2-2 4-5 4h-8v-9zM753 316zM58 139c2-24 7-43 17-59 13-17 30-26 52-26 49 0 74 34 74 101 0 18-2 34-6 48l52 8c4-18 7-37 6-56 0-46-10-81-32-107-22-25-53-38-94-39-37 0-67 13-89 41-20 25-31 55-33 90v14l-1 20 53 8c-1-10 0-31 1-43zM379 231l59 9c-2-2-3-5-5-7-5-10-8-23-8-38 0-22 6-39 16-51 11-12 26-18 45-18 11 0 22 4 32 13v113l49 7V0l-49 12v83c-13-7-28-10-43-10-28 0-52 10-71 31s-29 47-29 80c0 11 1 21 3 31l1 4z"/></g></svg>